# xmcd
#
# Track frame offsets:
#	150
#	13217
#	27203
#	43950
#	60698
#	76630
#	94816
#	111726
#	130628
#	148617
#	165093
#	182626
#	196769
#	211098
#	222681
#	242792
#
# Disc length: 3588 seconds
#
# Revision: 0
# Processed by: cddbd v1.4PL0 Copyright (c) Steve Scherf et al.
# Submitted via: EasyCDDAExtractor 4.5.0.2
#
DISCID=de0e0210
DTITLE=Lucy Pearl
DYEAR=2000
DGENRE=R&B
TTITLE0=Lucy Pearl´s Way
TTITLE1=Trippin´
TTITLE2=Dance Tonight
TTITLE3=Dance Tonight
TTITLE4=La
TTITLE5=Everyday
TTITLE6=Can´t Stand Your Mother
TTITLE7=Good Love
TTITLE8=Without You
TTITLE9=Don´t Mess With My Man
TTITLE10=Hollywood
TTITLE11=Remember The Times
TTITLE12=They Can´t
TTITLE13=Do It For The People
TTITLE14=You
TTITLE15=Lucy Pearl Tells
EXTD=
EXTT0=
EXTT1=
EXTT2=
EXTT3=
EXTT4=
EXTT5=
EXTT6=
EXTT7=
EXTT8=
EXTT9=
EXTT10=
EXTT11=
EXTT12=
EXTT13=
EXTT14=
EXTT15=
PLAYORDER=
